<?xml version="1.0" encoding="utf-8"?>
<!-- Generator: Adobe Illustrator 22.0.1, SVG Export Plug-In . SVG Version: 6.00 Build 0)  -->
<!DOCTYPE svg PUBLIC "-//W3C//DTD SVG 1.1//EN" "http://www.w3.org/Graphics/SVG/1.1/DTD/svg11.dtd">
<svg version="1.1" id="Laag_1" xmlns="http://www.w3.org/2000/svg" xmlns:xlink="http://www.w3.org/1999/xlink" x="0px" y="0px"
	 viewBox="0 0 141.7 141.7" style="enable-background:new 0 0 141.7 141.7;" xml:space="preserve">
<style type="text/css">
	.st0{fill:none;stroke:#233979;stroke-width:4;stroke-miterlimit:10;}
	.st1{fill:#233979;}
	.st2{fill:none;stroke:#233979;stroke-width:4;stroke-linecap:round;stroke-linejoin:round;stroke-miterlimit:10;}
</style>
<path class="st0" d="M-118.5,43.7c-15,0-27.2,12.2-27.2,27.2S-133.5,98-118.5,98c15,0,27.2-12.2,27.2-27.2S-103.5,43.7-118.5,43.7z"
	/>
<g>
	<path class="st1" d="M-120.5,59.7v-4.1h4.1v4.1H-120.5z M-120.5,86.1V63.8h4.1v22.4H-120.5z"/>
</g>
<g>
	<path class="st1" d="M68.8,66.8v-4.1h4.1v4.1H68.8z M68.8,93.2V70.9h4.1v22.4H68.8z"/>
</g>
<path class="st2" d="M92.6,55.2l-14-14c-0.2-0.2-0.4-0.3-0.7-0.3h-28c-0.6,0-1,0.4-1,1v58c0,0.6,0.4,1,1,1h42c0.6,0,1-0.4,1-1v-44
	C92.9,55.6,92.8,55.3,92.6,55.2z M91.4,54.9H78.9V42.7"/>
</svg>
