<?xml version="1.0" encoding="utf-8"?>
<!-- Generator: Adobe Illustrator 22.0.1, SVG Export Plug-In . SVG Version: 6.00 Build 0)  -->
<!DOCTYPE svg PUBLIC "-//W3C//DTD SVG 1.1//EN" "http://www.w3.org/Graphics/SVG/1.1/DTD/svg11.dtd">
<svg version="1.1" id="Laag_1" xmlns="http://www.w3.org/2000/svg" xmlns:xlink="http://www.w3.org/1999/xlink" x="0px" y="0px"
	 viewBox="0 0 141.7 141.7" style="enable-background:new 0 0 141.7 141.7;" xml:space="preserve">
<style type="text/css">
	.st0{fill:#233979;}
	.st1{clip-path:url(#SVGID_2_);}
	.st2{clip-path:url(#SVGID_4_);fill:url(#SVGID_5_);}
</style>
<g>
	<path class="st0" d="M72.8,68.8L72.8,68.8C72.8,68.8,72.8,68.8,72.8,68.8L72.8,68.8z"/>
</g>
<g>
	<defs>
		<path id="SVGID_1_" d="M72.8,68.8L72.8,68.8L72.8,68.8C72.8,68.8,72.8,68.8,72.8,68.8"/>
	</defs>
	<clipPath id="SVGID_2_">
		<use xlink:href="#SVGID_1_"  style="overflow:visible;"/>
	</clipPath>
	<g class="st1">
		<defs>
			<rect id="SVGID_3_" x="72.9" y="68.9" width="0" height="0"/>
		</defs>
		<clipPath id="SVGID_4_">
			<use xlink:href="#SVGID_3_"  style="overflow:visible;"/>
		</clipPath>
		
			<linearGradient id="SVGID_5_" gradientUnits="userSpaceOnUse" x1="9315.8525" y1="-5822.3804" x2="9316.8525" y2="-5822.3804" gradientTransform="matrix(0 -3.921610e-02 -3.921610e-02 0 -155.3764 434.2644)">
			<stop  offset="0" style="stop-color:#335C8E"/>
			<stop  offset="1" style="stop-color:#88B8D7"/>
		</linearGradient>
		<rect x="72.9" y="68.9" class="st2" width="0" height="0"/>
	</g>
</g>
<g>
	<path class="st0" d="M81,79.1h-4v-6.5c0-1.6-0.6-2.7-2-2.7c-1.1,0-1.8,0.7-2.1,1.5c-0.1,0.3-0.1,0.6-0.1,1v6.7h-4
		c0,0,0.1-10.9,0-12.1h4v1.7c0.5-0.8,1.5-2,3.6-2c2.6,0,4.6,1.7,4.6,5.4V79.1z M64.6,65.4L64.6,65.4c-1.4,0-2.2-0.9-2.2-2.1
		c0-1.2,0.9-2.1,2.3-2.1c1.4,0,2.2,0.9,2.2,2.1C66.8,64.5,66,65.4,64.6,65.4 M66.6,79.1h-4V67.1h4V79.1z M70.9,53.7
		c-9.5,0-17.2,7.7-17.2,17.1c0,9.5,7.7,17.1,17.2,17.1S88,80.3,88,70.9C88,61.4,80.3,53.7,70.9,53.7"/>
</g>
</svg>
