<?xml version="1.0" encoding="utf-8"?>
<!-- Generator: Adobe Illustrator 22.0.1, SVG Export Plug-In . SVG Version: 6.00 Build 0)  -->
<!DOCTYPE svg PUBLIC "-//W3C//DTD SVG 1.1//EN" "http://www.w3.org/Graphics/SVG/1.1/DTD/svg11.dtd">
<svg version="1.1" id="Laag_1" xmlns="http://www.w3.org/2000/svg" xmlns:xlink="http://www.w3.org/1999/xlink" x="0px" y="0px"
	 viewBox="0 0 141.7 141.7" style="enable-background:new 0 0 141.7 141.7;" xml:space="preserve">
<style type="text/css">
	.st0{fill:#233979;}
	.st1{fill:#FFFFFF;}
</style>
<path class="st0" d="M101.9,99.4L86.2,83.8c8.5-9.9,8-24.9-1.4-34.3c-9.9-9.9-26-9.9-35.8,0c-9.9,9.9-9.9,26,0,35.8
	c4.8,4.8,11.1,7.4,17.9,7.4c5.8,0,11.2-1.9,15.7-5.4L98.3,103c0.5,0.5,1.1,0.7,1.8,0.7c0.6,0,1.3-0.2,1.8-0.7
	C102.9,102,102.9,100.4,101.9,99.4 M52.5,81.8c-3.8-3.8-6-9-6-14.4s2.1-10.5,6-14.4c3.8-3.8,9-6,14.4-6c5.4,0,10.5,2.1,14.4,6
	c3.8,3.8,6,9,6,14.4c0,5.4-2.1,10.5-6,14.4c-3.8,3.8-9,6-14.4,6C61.5,87.7,56.4,85.6,52.5,81.8"/>
<path class="st1" d="M52.5,81.8c-3.8-3.8-6-9-6-14.4s2.1-10.5,6-14.4c3.8-3.8,9-6,14.4-6c5.4,0,10.5,2.1,14.4,6c3.8,3.8,6,9,6,14.4
	c0,5.4-2.1,10.5-6,14.4c-3.8,3.8-9,6-14.4,6C61.5,87.7,56.4,85.6,52.5,81.8"/>
</svg>
