<?xml version="1.0" encoding="utf-8"?>
<!-- Generator: Adobe Illustrator 22.0.1, SVG Export Plug-In . SVG Version: 6.00 Build 0)  -->
<!DOCTYPE svg PUBLIC "-//W3C//DTD SVG 1.1//EN" "http://www.w3.org/Graphics/SVG/1.1/DTD/svg11.dtd">
<svg version="1.1" id="Layer_1" xmlns="http://www.w3.org/2000/svg" xmlns:xlink="http://www.w3.org/1999/xlink" x="0px" y="0px"
	 viewBox="0 0 79.4 79.4" style="enable-background:new 0 0 79.4 79.4;" xml:space="preserve">
<style type="text/css">
	.st0{fill:#233979;}
</style>
<title>VanOord_icons</title>
<path class="st0" d="M62.7,25.6c-1.2-12.7-12.4-22-25.1-20.9c-11.1,1-19.8,9.8-20.9,20.9c-0.3,5.5,0.7,11,2.9,16
	c0.8,2.4,1.5,4.8,2.1,7.3c0.7,2.9,1.5,4.3,2.6,4.8c0.3,0.2,0.7,0.2,1,0.2H54c0.4,0,0.7-0.1,1-0.2c1.2-0.5,1.9-1.9,2.6-4.8
	c0.5-2.5,1.2-4.9,2.1-7.3C62,36.6,63,31.1,62.7,25.6z M55.2,39.7c-0.9,2.6-1.7,5.3-2.3,8c-0.1,0.5-0.2,0.9-0.3,1.2H26.8
	c-0.1-0.3-0.2-0.7-0.3-1.2c-0.6-2.7-1.4-5.4-2.3-8c-1.9-4.3-2.8-8.9-2.5-13.6c0.8-10,9.6-17.3,19.6-16.5C50,10.3,57,17.3,57.7,26.1
	C58,30.8,57.1,35.4,55.2,39.7z"/>
<path class="st0" d="M44.8,67.6c-2.8,2.8-7.5,2.8-10.3,0c-1-1-2.5-1-3.5-0.1S30,70,30.9,71c0,0,0,0,0.1,0.1c4.8,4.8,12.6,4.8,17.4,0
	l0,0c1-1,1-2.6,0-3.5S45.8,66.7,44.8,67.6z"/>
<path class="st0" d="M50.7,57.8h-22c-1.4,0-2.5,1.1-2.5,2.5s1.1,2.5,2.5,2.5h21.9c1.4,0,2.5-1.1,2.5-2.5S52,57.8,50.7,57.8z"/>
</svg>
