<?xml version="1.0" encoding="utf-8"?>
<!-- Generator: Adobe Illustrator 22.0.1, SVG Export Plug-In . SVG Version: 6.00 Build 0)  -->
<!DOCTYPE svg PUBLIC "-//W3C//DTD SVG 1.1//EN" "http://www.w3.org/Graphics/SVG/1.1/DTD/svg11.dtd">
<svg version="1.1" id="Layer_1" xmlns="http://www.w3.org/2000/svg" xmlns:xlink="http://www.w3.org/1999/xlink" x="0px" y="0px"
	 viewBox="0 0 79.4 79.4" style="enable-background:new 0 0 79.4 79.4;" xml:space="preserve">
<style type="text/css">
	.st0{fill:#233979;}
</style>
<title>VanOord_icons</title>
<path class="st0" d="M39.7,61.8c-18.8,0-34-19.7-34.6-20.5c-0.7-0.9-0.7-2.1,0-3c0.6-0.8,15.8-20.8,34.6-20.8s34,19.9,34.6,20.8
	c0.7,0.9,0.7,2.1,0,3C73.6,42.1,58.5,61.8,39.7,61.8z M10.3,39.8c3.8,4.4,15.8,17,29.4,17s25.6-12.6,29.4-17
	c-3.8-4.5-15.8-17.2-29.4-17.2S14.1,35.3,10.3,39.8L10.3,39.8z"/>
<path class="st0" d="M39.1,53.7c-7.7,0-13.9-6.2-13.9-13.9s6.2-13.9,13.9-13.9S53,32.1,53,39.8l0,0C52.9,47.5,46.7,53.7,39.1,53.7z
	 M39.1,30.9c-4.9,0-8.9,4-8.9,8.9s4,8.9,8.9,8.9s8.9-4,8.9-8.9l0,0C47.9,34.9,44,30.9,39.1,30.9z"/>
</svg>
