<?xml version="1.0" encoding="utf-8"?>
<!-- Generator: Adobe Illustrator 22.0.1, SVG Export Plug-In . SVG Version: 6.00 Build 0)  -->
<!DOCTYPE svg PUBLIC "-//W3C//DTD SVG 1.1//EN" "http://www.w3.org/Graphics/SVG/1.1/DTD/svg11.dtd">
<svg version="1.1" id="Layer_1" xmlns="http://www.w3.org/2000/svg" xmlns:xlink="http://www.w3.org/1999/xlink" x="0px" y="0px"
	 viewBox="0 0 79.4 79.4" style="enable-background:new 0 0 79.4 79.4;" xml:space="preserve">
<style type="text/css">
	.st0{fill:#233979;}
</style>
<title>VanOord_icons</title>
<path class="st0" d="M51.5,40.3c8.8-6.5,10.7-18.9,4.2-27.7S36.7,2,27.9,8.5s-10.7,18.9-4.2,27.7c1.2,1.6,2.6,3,4.2,4.2
	c-5.8,7.9-12.2,23-12.2,31.9c0,1.4,1.1,2.5,2.5,2.5l0,0h43c1.4,0,2.5-1.1,2.5-2.5C63.7,63.4,57.3,48.2,51.5,40.3z M24.9,24.4
	c0-8.2,6.6-14.8,14.8-14.8s14.8,6.6,14.8,14.8c0,5.5-3,10.5-7.9,13.1l0,0c-4.3,2.3-9.5,2.3-13.8,0l0,0C27.9,35,24.9,29.9,24.9,24.4z
	 M20.9,69.8c1-7.8,6.3-20.5,11.4-27h0.1c0.5,0.2,1.1,0.4,1.6,0.5h0.2c3.6,1.1,7.4,1.1,11,0h0.2c0.5-0.2,1.1-0.3,1.6-0.5h0
	c5.1,6.5,10.4,19.2,11.4,27H20.9L20.9,69.8z"/>
</svg>
